<svg xmlns="http://www.w3.org/2000/svg" viewBox="0 0 400 311"><path d="M224,63.2a199.5,199.5,0,0,1-33.6,111l-1.4-.8c-30-16.8-60.7-32.2-88.8-52.2L16.8,147.8V86.2h0v61.6l-72-23-13.5-4.3h-.1l-4.9-1.6-12.6-4-88.3-28.3a.6.6,0,0,1-.1-.4h0v-.4h0A199.8,199.8,0,0,1-176,65.2V61.1a197.8,197.8,0,0,1,3.5-35.5,3.6,3.6,0,0,0,.2-1.1,198.2,198.2,0,0,1,19.2-54.3c1.3-2.5,2.6-4.9,4-7.3s4.4-7.3,6.7-10.8a201,201,0,0,1,49-50.9A199.3,199.3,0,0,1,24-136.8a199.3,199.3,0,0,1,117.4,38l.2.2a200.7,200.7,0,0,1,52.5,56.5l3,5c.6,1.1,1.3,2.2,1.9,3.4a182,182,0,0,1,10.6,22.3h.1A200.9,200.9,0,0,1,224,63.2Z" transform="translate(176 136.8)" style="fill:#1d0000"/><path d="M16.8,86.2v61.6l-72-23-13.5-4.3h-.1l-4.9-1.6-12.6-4-88.3-28.3a.6.6,0,0,1-.1-.4H16.8Z" transform="translate(176 136.8)" style="fill:#115a7f"/><path d="M209.6,86.2h0L16.8,24.5V86.2h0V24.5L-34.9,41.1l-25.6,8.2-19.1,6.1h0l-95.1,30.4h0v.4H16.8v61.6l83.4-26.6,109.4-35h0Z" transform="translate(176 136.8)" style="fill:#00409e"/><path d="M16.4-98.6-18.8-87.4h-.1L-142.4-47.9c-2.3,3.5-4.6,7.1-6.7,10.8s-2.7,4.8-4,7.3a198.2,198.2,0,0,0-19.2,54.3,3.6,3.6,0,0,1-.2,1.1A197.8,197.8,0,0,0-176,61.1v4.1a199.8,199.8,0,0,0,1.3,20.6l95.1-30.5,19.1-6.1,25.6-8.1L16.8,24.5h0V-98.8Z" transform="translate(176 136.8)" style="fill:#1da1f2"/><path d="M209.6-11.4l-.9-2.3-.4-.9c-.7-1.8-1.5-3.6-2.3-5.4s-.9-1.8-1.3-2.7A5.4,5.4,0,0,0,204-24l-.4-.9a5.9,5.9,0,0,0-.4-.8c-.4-.8-.7-1.5-1.1-2.2l-.5-1.1-1.2-2.1-.6-1.3-.8-1.3c-.6-1.2-1.3-2.3-1.9-3.4l-3-5L47.9-88.9,25.6-96l-8.3-2.6-.5-.2V24.5h0L209.7,86.2V24.5h0V-11.4ZM16.8,24.5h0l18.4-5.8Z" transform="translate(176 136.8)" style="fill:#1d0000"/><path d="M37.8-98.6a30.7,30.7,0,0,0-10.3,1.9l-1.9.7h-.1l-1.8.8L16.8-92h0C8.2-87.9-.1-83.4-6.7-76.3a115.6,115.6,0,0,0-10.2,12c-4.3,5.8-9,11.6-12,18.2a89.3,89.3,0,0,0-3.7,9,145.2,145.2,0,0,0-4.1,14.3h0c-.1.6-.3,1.1-.4,1.7-.9,4.2-.1,8.8.3,13.3h0c.1.6.1,1.3.2,1.9.3,4.6,1.2,9.1,1,13.7h0a3.7,3.7,0,0,0-.1,1.1h0a33.5,33.5,0,0,0,.8,5.4h0l.6,2.4h0a26.4,26.4,0,0,1,1.1,5.6h0a7.4,7.4,0,0,1,0,2.1,14.5,14.5,0,0,1-.4,3.5,41.4,41.4,0,0,0-1.3,13.1h0a79,79,0,0,0,4.8,21.7c.3.8,1.2,1.3,1.5,2.1a69.5,69.5,0,0,1,2,6.9h0c.1.2.1.4.2.6,1,3.4,1.9,6.9,3,10.2.3,1.2.7,2.4,1.1,3.6h0a49.4,49.4,0,0,0,6.7,12.6c.6.8-.6,4.3-2,5.2a53.2,53.2,0,0,1-10.2,4.9,106.2,106.2,0,0,0-27.4,15.9l-13.5-4.3h-.1l-4.9-1.6a117.4,117.4,0,0,1,19.3-10A53.2,53.2,0,0,0-44.2,104c1.4-.9,2.6-4.4,2-5.2a49.4,49.4,0,0,1-6.7-12.6h0c-.4-1.2-.8-2.4-1.1-3.6-1.2-3.5-2.1-7.2-3.2-10.8h0a69.5,69.5,0,0,0-2-6.9c-.3-.8-1.2-1.3-1.5-2.1h0a92.4,92.4,0,0,1-3.8-13.4h0A47.4,47.4,0,0,1-60.3,28a11,11,0,0,0,.5-3.5c.3-6-2.8-11-2.4-16.7a50.8,50.8,0,0,0-.5-8.7h0c-.2-1.7-.4-3.3-.5-5-.3-5.1-1.6-10.4-.5-15.2a145.9,145.9,0,0,1,4.5-16,89.3,89.3,0,0,1,3.7-9c3-6.6,7.7-12.4,12-18.2a115.6,115.6,0,0,1,10.2-12,58.6,58.6,0,0,1,14.4-11h.1c5.1-2.9,10.5-5.3,15.9-7.8a36.5,36.5,0,0,1,14.1-3.4Z" transform="translate(176 136.8)" style="fill:#1d0000"/><path d="M211.3-7l.3.7.3.7a7.6,7.6,0,0,0,.4,1.1l.6,1.9a3.6,3.6,0,0,1,.4,1.1c.1.3.3.7.4,1.1a1.9,1.9,0,0,1,.2.7l.3.9.3.8.3.9,1.3,4.6a4.2,4.2,0,0,1,.4,1c.7,2.8,1.5,5.7,2.1,8.5l.3,1,.3,1.2a4.4,4.4,0,0,0,.2,1,4.4,4.4,0,0,0,.2,1l.3,1.6.3,1.2h0c.1.4.1.8.2,1.2a4.3,4.3,0,0,1,.2,1.1c0,.1.1.1.1.2a5,5,0,0,0,.2,1.2c.1.4.1.8.2,1.3s.1.7.2,1.1.1.8.2,1.2l.9,6.4a4.5,4.5,0,0,1,.1,1.1l.6,4.8a3.8,3.8,0,0,0,.1,1v.6a4.9,4.9,0,0,1,.1,1.2c.1.7.1,1.5.2,2.2a3.1,3.1,0,0,0,.1,1v1.1a9.2,9.2,0,0,1,.1,1.6,2.8,2.8,0,0,0,.1.9,14.8,14.8,0,0,0,.1,2.1v2.8a4.1,4.1,0,0,1,.1,1.1v6.9a8.6,8.6,0,0,1-.1,1.6v3.1a8.1,8.1,0,0,0-.1,1.6V73a3.4,3.4,0,0,0-.1,1,4.9,4.9,0,0,1-.1,1.2v1.3h0c-.1.6-.1,1.1-.2,1.7a10.3,10.3,0,0,1-.1,1.7,2.2,2.2,0,0,1-.1.8,4.9,4.9,0,0,1-.1,1.2v.4c-.1.6-.1,1.1-.2,1.7v.2c0,.4-.1.9-.1,1.4l-.3,1.9a2.5,2.5,0,0,1-.1.8,8.8,8.8,0,0,1-.2,1.6,7.7,7.7,0,0,1-.2,1.5c0,.4-.1.8-.1,1.1s-.1.8-.2,1.1v.2a5.9,5.9,0,0,0-.2,1.4h-.1l-.3,1.7h0a5,5,0,0,1-.2,1.2v.4c-.1.3-.1.5-.2.8s-.1.6-.1.9a6.4,6.4,0,0,1-.2.7l-.3,1.5c-.1.4-.1.9-.2,1.3s-.1.6-.2.8c-.5,2.2-.9,4.3-1.5,6.5a3.1,3.1,0,0,1-.2.8l-.3,1.2c-.1.3-.1.6-.2.8l-.3,1.2c-.1.5-.3,1-.4,1.5a2.4,2.4,0,0,0-.2.8l-.3,1v.4c-.2.5-.3,1-.5,1.5v.2c-.2.5-.3,1-.5,1.5s0,.2-.1.2a33.8,33.8,0,0,1-1.1,3.4h0a10.9,10.9,0,0,1-.5,1.7h0l-.6,1.7-1.3,3.6a7.8,7.8,0,0,0-.5,1.4l-.2.3a5,5,0,0,1-.5,1.3c0,.1-.1.2-.1.3l-.6,1.6h0c-.2.6-.5,1.1-.7,1.7h0c-.2.5-.5,1.1-.7,1.7h0l-.7,1.6-1.4,3.2a.4.4,0,0,0-.1.3l-1.5,3.1h0l-.8,1.6-.9,1.9a3.6,3.6,0,0,0-.4.9l-.4.6-.9,1.8-.5.9-1.1,2.1c-.3.4-.5.9-.8,1.4l-.9,1.6-.8,1.4c-.1.1-.1.2-.2.4l-.8,1.3c-.3.4-.5.9-.8,1.4l-.9,1.4a5.6,5.6,0,0,1-.5.8l-.6,1-.8,1.3-.7,1-.6,1-.8,1.2-1.4-.8c-30-16.8-60.7-32.2-88.8-52.2l-1.8-1.3c-6.5-4.6-12.8-9.5-19.4-14.2a7.3,7.3,0,0,1-1.8-10.5,18.5,18.5,0,0,0,2.7-4.7c.4-1.5.8-2.9,1.3-4.3h0l1.5-4.9c1.8-5.9,3.6-11.8,4.9-17.8.3-1.6.7-3.2.9-4.8.6-3.6,1.1-7.2,1.4-10.8.6-7.7.8-15.5,1.3-23.3h0c0-2.1-1.6-4.4-1.4-6.5C90.7,12,92.5,6.1,93,.2h0A4.9,4.9,0,0,0,93.1-1c.5-5.9-.2-11.9-.9-17.9s-1.6-12.2-2.9-18.2L89-38.5c-2.2-9.4-8.6-16.3-14.1-23.8A124.8,124.8,0,0,0,50.6-86.7a18.6,18.6,0,0,1-2.7-2.2,12.8,12.8,0,0,0-2.5-1.5c-4.7-1.9-9.5-3.6-14.3-5.1l-3.6-1.2a27.2,27.2,0,0,0-8.7-1.9H141.6l1.4,1,.7.5,2.8,2.2,2.8,2.2h.1l1.7,1.4.3.3,5.3,4.5h0c1.8,1.6,3.6,3.2,5.3,4.9h.1l5.8,5.8.9.9c1.1,1.1,2.2,2.3,3.2,3.5l1.6,1.8,2.4,2.7.8.9.8.9.4.5.5.7.6.7.7.9.7.8a7.6,7.6,0,0,1,.8,1.1l.7.9a3.9,3.9,0,0,1,.8,1l.6.7,1.1,1.5.7,1,1.2,1.6.7,1,.7,1,.7.9a5.6,5.6,0,0,0,.5.8l3.1,4.7.7,1,.6,1.1a2.2,2.2,0,0,1,.5.8l.2.2,1.5,2.5a7.5,7.5,0,0,1,.7,1.2l.8,1.3v.2l.9,1.5.9,1.7.8,1.3.6,1.3,1.2,2.1.5,1.1c.4.7.7,1.4,1.1,2.2a5.9,5.9,0,0,1,.4.8l.4.9a5.4,5.4,0,0,1,.7,1.3c.4.9.8,1.8,1.3,2.7s1.6,3.6,2.3,5.4l.4.9" transform="translate(176 136.8)" style="fill:#1da0f1"/><path d="M-21.8-23.7c9.6,1.1,19.6,1.4,29.1,5.6a25.1,25.1,0,0,0,20.1-.1c9.5-4.3,19.5-5.1,29.5-5.3,8.4-.2,16.9.9,25.3,1.4,1.8.1,4.3-.2,5,1.9s1.1,5.4-.9,7.5-3.4,6.2-4.1,9.8-1.6,6.5-2.4,9.8C76.1,21.3,65,25.8,51.5,24.2,35.1,22.3,26.2,13.9,22.3-2.2c-.8-3-1.8-5.9-5.3-6s-4.5,3-5.2,6C6.7,18.8-10,27-27.8,23.9c-7.9-1.4-13.7-5.5-16.6-13.3A82,82,0,0,1-47.8-1.1c-.9-4.3-1.5-8.4-4.6-12s-1.1-8.7,4.5-9ZM-38.4,13c1.5-.6,1.7-1.7,2.1-2.6,3.5-7.8,7-15.7,10.4-23.6.8-1.6,2.8-3.8,1.4-5.1s-4.4,0-6.6.3-1.7,1.5-2.2,2.6c-2.1,4.8-4.5,9.5-6.3,14.4S-41.6,8.5-38.4,13ZM44-18.1c-3.3-.3-5.5,1-6.8,4.4A119.9,119.9,0,0,1,31.4-.5c-1.9,3.6-1.1,6.6.8,9.7s2.4,2.4,3.6-.3C39.3,1,42.8-7,46.4-14.9,47.6-17.5,47-18.5,44-18.1ZM-33,17.4c1.6-.1,1.8-1.5,2.2-2.5C-26.3,5-21.9-5-17.5-15c.5-1.2,1.7-2.7-.4-3.6s-2.7.6-3.3,2c-1.6,3.4-3.2,6.9-4.7,10.3C-28.8.2-31.6,6.8-34.5,13.3-35.3,15.2-35.3,16.7-33,17.4Zm72.2-1.6c1.2-.1,1.4-1,1.8-1.8L54.5-16.4c.3-.6.8-1.4.2-2s-1.6-.3-2.5-.1a4.3,4.3,0,0,0-2.5,2.8c-1.3,3-2.7,5.9-4,8.8L37.6,11.6C36.7,13.6,36.6,15.2,39.2,15.8Z" transform="translate(176 136.8)" style="fill:#00409e"/></svg>