<svg xmlns="http://www.w3.org/2000/svg" xmlns:xlink="http://www.w3.org/1999/xlink" viewBox="0 0 110 109.8">
    <path d="M110.2,49.7V60.1c-2,23-17.7,21.2-17.7,21.2H55.1v3.8H81.9V97.7s1.7,12.2-26.3,12.2-27-14.7-27-14.7V71c0-14.7,14.9-14.4,14.9-14.4H70c15.9,0,15.4-15.7,15.4-15.7V27.8h9.4S108.4,26.9,110.2,49.7Z" transform="translate(-0.2 0)" style="fill:url(#a)" />
    <path d="M25,68.9V82.1H15.7S2.1,82.9.2,60.1V49.7c2-22.9,17.7-21.2,17.7-21.2H55.3V24.8H28.6V12.2S26.8,0,54.8,0s27,14.7,27,14.7V38.9c0,14.6-14.9,14.4-14.9,14.4H40.4C24.5,53.3,25,68.9,25,68.9Z" transform="translate(-0.2 0)" style="fill:url(#b)" />
</svg>