<svg xmlns="http://www.w3.org/2000/svg" viewBox="0 0 128 128">
    <path
        d="M100.2,27.2C91,13.9,72.6,10,59.4,18.4L36.1,33.3A26.5,26.5,0,0,0,24,51.2a28.4,28.4,0,0,0,2.8,18.1,24.1,24.1,0,0,0-3.9,10,28.3,28.3,0,0,0,4.8,21.5c9.3,13.3,27.6,17.2,40.8,8.8L91.8,94.8a26.5,26.5,0,0,0,12.1-17.9,28.4,28.4,0,0,0-2.8-18.1,25.7,25.7,0,0,0,4-10,28.1,28.1,0,0,0-4.9-21.6"
        style="fill:#ff3e00" />
    <path
        d="M57.1,102.1a18.7,18.7,0,0,1-19.8-7.4,17.2,17.2,0,0,1-3-13l.5-2.2.4-1.3,1.2.8a31.8,31.8,0,0,0,9.2,4.6l.8.2v.9a6.2,6.2,0,0,0,1,3.5,5.7,5.7,0,0,0,6,2.2,3.5,3.5,0,0,0,1.4-.6L77.9,75a4.1,4.1,0,0,0,2.2-3.2,4.9,4.9,0,0,0-.8-3.9,5.6,5.6,0,0,0-6-2.2l-1.5.6L62.9,72a15.2,15.2,0,0,1-4.7,2,18.5,18.5,0,0,1-19.8-7.4,16.9,16.9,0,0,1-2.9-12.9,16.2,16.2,0,0,1,7.3-10.8L66.1,28.1a18.2,18.2,0,0,1,4.7-2.2,18.7,18.7,0,0,1,19.9,7.4,16.7,16.7,0,0,1,2.9,13,9,9,0,0,1-.6,2.2l-.4,1.3L91.4,49a30,30,0,0,0-9.1-4.6l-.9-.2v-.9a5.6,5.6,0,0,0-.9-3.5,6,6,0,0,0-6-2.2l-1.5.6L49.9,53.1a4.3,4.3,0,0,0-2.2,3.2,5.9,5.9,0,0,0,.8,3.9,5.8,5.8,0,0,0,6.1,2.2,3.5,3.5,0,0,0,1.4-.6l8.9-5.7A21.8,21.8,0,0,1,69.6,54a18.6,18.6,0,0,1,19.9,7.4,16.5,16.5,0,0,1,2.9,12.9,15.5,15.5,0,0,1-7.3,10.8L61.8,99.9a18.4,18.4,0,0,1-4.7,2.2"
         style="fill:#fff" />
</svg>