<svg xmlns="http://www.w3.org/2000/svg" viewBox="0 0 83.1 100"><path d="M86.2,13.2C77-.1,58.6-4,45.4,4.4L22.1,19.3A26.5,26.5,0,0,0,10,37.2a28.4,28.4,0,0,0,2.8,18.1,24.1,24.1,0,0,0-3.9,10,28.3,28.3,0,0,0,4.8,21.5C23,100.1,41.3,104,54.5,95.6L77.8,80.8A26.5,26.5,0,0,0,89.9,62.9a28.3,28.3,0,0,0-2.8-18.1,25.7,25.7,0,0,0,4-10,28.1,28.1,0,0,0-4.9-21.6" transform="translate(-8.4 0)" style="fill:#ff3e00"/><path d="M43.1,88.1a18.6,18.6,0,0,1-19.8-7.4,17.2,17.2,0,0,1-3-13l.5-2.2.4-1.3,1.2.8a31.8,31.8,0,0,0,9.2,4.6l.8.2v.9a5.7,5.7,0,0,0,1,3.5,5.6,5.6,0,0,0,6,2.2,3.5,3.5,0,0,0,1.4-.6L63.9,61a4.3,4.3,0,0,0,2.2-3.2,4.9,4.9,0,0,0-.8-3.9,5.5,5.5,0,0,0-6-2.2,9.4,9.4,0,0,0-1.5.6L48.9,58a15.2,15.2,0,0,1-4.7,2,18.5,18.5,0,0,1-19.8-7.4,16.5,16.5,0,0,1-2.9-12.9,16,16,0,0,1,7.3-10.8L52.1,14.1a18.4,18.4,0,0,1,4.7-2.2,18.8,18.8,0,0,1,19.9,7.4,17.1,17.1,0,0,1,2.9,13,18,18,0,0,1-.6,2.2l-.4,1.3L77.4,35a31.2,31.2,0,0,0-9.1-4.6l-.9-.2v-.9a6.3,6.3,0,0,0-.9-3.5,5.9,5.9,0,0,0-6-2.2l-1.5.6L35.9,39.1a4.3,4.3,0,0,0-2.2,3.2,5.4,5.4,0,0,0,.8,3.9,5.8,5.8,0,0,0,6.1,2.2,5.9,5.9,0,0,0,1.4-.6l8.9-5.7A18.2,18.2,0,0,1,55.6,40a18.6,18.6,0,0,1,19.9,7.4,16.9,16.9,0,0,1,2.9,12.9,15.7,15.7,0,0,1-7.3,10.8L47.8,85.9a18.4,18.4,0,0,1-4.7,2.2" transform="translate(-8.4 0)" style="fill:#fff"/></svg>